<svg width="7" height="12" viewBox="0 0 7 12" fill="none" xmlns="http://www.w3.org/2000/svg">
<path d="M5.99973 1.41693C6.15435 1.26077 6.24109 1.0499 6.24109 0.830136C6.24109 0.610376 6.15435 0.399497 5.99973 0.243336C5.9238 0.166236 5.8333 0.105007 5.73348 0.0632152C5.63367 0.0214224 5.52654 -9.92134e-05 5.41833 -9.92181e-05C5.31012 -9.92228e-05 5.20299 0.0214223 5.10318 0.0632152C5.00336 0.105007 4.91286 0.166236 4.83693 0.243336L0.240928 4.93294C0.0865205 5.08945 -5.07707e-05 5.30047 -5.07803e-05 5.52034C-5.07899e-05 5.7402 0.0865204 5.95122 0.240928 6.10774L4.83693 10.7973C4.91286 10.8744 5.00336 10.9357 5.10318 10.9775C5.20299 11.0192 5.31012 11.0408 5.41833 11.0408C5.52654 11.0408 5.63367 11.0192 5.73348 10.9775C5.8333 10.9357 5.9238 10.8744 5.99973 10.7973C6.15435 10.6412 6.24109 10.4303 6.24109 10.2105C6.24109 9.99078 6.15435 9.7799 5.99973 9.62374L2.23053 5.51854L5.99973 1.41693Z" fill="black"/>
</svg>
