<svg width="7" height="12" viewBox="0 0 7 12" fill="none" xmlns="http://www.w3.org/2000/svg">
<path d="M0.24136 1.41693C0.0867375 1.26077 -4.36715e-07 1.0499 -4.46321e-07 0.830136C-4.55927e-07 0.610376 0.0867375 0.399497 0.24136 0.243336C0.317288 0.166236 0.407793 0.105007 0.507607 0.0632152C0.607421 0.0214224 0.71455 -9.92134e-05 0.82276 -9.92181e-05C0.93097 -9.92228e-05 1.0381 0.0214223 1.13791 0.0632152C1.23773 0.105007 1.32823 0.166236 1.40416 0.243336L6.00016 4.93294C6.15457 5.08945 6.24114 5.30047 6.24114 5.52034C6.24114 5.7402 6.15457 5.95122 6.00016 6.10774L1.40416 10.7973C1.32823 10.8744 1.23773 10.9357 1.13791 10.9775C1.0381 11.0192 0.930971 11.0408 0.82276 11.0408C0.71455 11.0408 0.607421 11.0192 0.507607 10.9775C0.407793 10.9357 0.317289 10.8744 0.24136 10.7973C0.0867379 10.6412 -2.66847e-08 10.4303 -3.62908e-08 10.2105C-4.58968e-08 9.99078 0.0867379 9.7799 0.24136 9.62374L4.01056 5.51854L0.24136 1.41693Z" fill="black"/>
</svg>
